<?xml version="1.0" encoding="UTF-8" standalone="no" ?>
<!DOCTYPE svg PUBLIC "-//W3C//DTD SVG 1.1//EN" "http://www.w3.org/Graphics/SVG/1.1/DTD/svg11.dtd">
<svg xmlns="http://www.w3.org/2000/svg" xmlns:xlink="http://www.w3.org/1999/xlink" version="1.1" width="800" height="600" viewBox="0 0 800 600" xml:space="preserve">
<desc>Created with Fabric.js 5.3.0</desc>
<defs>
</defs>
<g transform="matrix(2.2806604101 0 0 0.2463479938 435.470783787 300)" id="L0JeimjGZX_EsnK1LIAYX"  >
<path style="stroke: rgb(73,120,71); stroke-width: 0; stroke-dasharray: none; stroke-linecap: butt; stroke-dashoffset: 0; stroke-linejoin: miter; stroke-miterlimit: 4; fill: rgb(177,189,195); fill-rule: nonzero; opacity: 1;"  transform=" translate(0, 0)" d="M -103.24675 -103.24675 L 103.24675 -103.24675 L 103.24675 103.24675 L -103.24675 103.24675 z" stroke-linecap="round" />
</g>
<g transform="matrix(1.9371069586 0 0 0.2421383698 599.6753267975 475.0000033327)" id="0SO2vZFQ6LEtJb7oTl8a0"  >
<path style="stroke: rgb(73,120,71); stroke-width: 0; stroke-dasharray: none; stroke-linecap: butt; stroke-dashoffset: 0; stroke-linejoin: miter; stroke-miterlimit: 4; fill: rgb(177,189,195); fill-rule: nonzero; opacity: 1;"  transform=" translate(0, 0)" d="M -103.24675 -103.24675 L 103.24675 -103.24675 L 103.24675 103.24675 L -103.24675 103.24675 z" stroke-linecap="round" />
</g>
<g transform="matrix(0.2436708837 0 0 1.0965189766 224.6753307636 212.5)" id="GpnENR3624YVs3nqJnzlr"  >
<path style="stroke: rgb(102,143,135); stroke-width: 0; stroke-dasharray: none; stroke-linecap: butt; stroke-dashoffset: 0; stroke-linejoin: miter; stroke-miterlimit: 4; fill: rgb(177,189,195); fill-rule: nonzero; opacity: 1;"  transform=" translate(0, 0)" d="M -102.5974 -102.5974 L 102.59741 -102.5974 L 102.59741 102.59741 L -102.5974 102.59741 z" stroke-linecap="round" />
</g>
<g transform="matrix(0.2436708837 0 0 1.0965189766 424.6753311053 212.5000015324)" id="lsCBqOYBwyTXQp1vrPzPQ"  >
<path style="stroke: rgb(102,143,135); stroke-width: 0; stroke-dasharray: none; stroke-linecap: butt; stroke-dashoffset: 0; stroke-linejoin: miter; stroke-miterlimit: 4; fill: rgb(177,189,195); fill-rule: nonzero; opacity: 1;"  transform=" translate(-0.000005, -0.000005)" d="M -102.5974 -102.5974 L 102.59741 -102.5974 L 102.59741 102.59741 L -102.5974 102.59741 z" stroke-linecap="round" />
</g>
<g transform="matrix(0.2436708837 0 0 1.0965189766 645.941561144 212.4999984676)" id="qoK6wunOi_sWscQhxlTh1"  >
<path style="stroke: rgb(102,143,135); stroke-width: 0; stroke-dasharray: none; stroke-linecap: butt; stroke-dashoffset: 0; stroke-linejoin: miter; stroke-miterlimit: 4; fill: rgb(177,189,195); fill-rule: nonzero; opacity: 1;"  transform=" translate(-0.000005, -0.000005)" d="M -102.5974 -102.5974 L 102.59741 -102.5974 L 102.59741 102.59741 L -102.5974 102.59741 z" stroke-linecap="round" />
</g>
<g transform="matrix(1.6210525595 0 0 0.4052631399 100.0000060883 125)" id="-RNED43xHoXuRM0694i_c"  >
<path style="stroke: rgb(132,61,179); stroke-width: 0; stroke-dasharray: none; stroke-linecap: butt; stroke-dashoffset: 0; stroke-linejoin: miter; stroke-miterlimit: 4; fill: rgb(177,189,195); fill-rule: nonzero; opacity: 1;"  transform=" translate(0, 0)" d="M -61.68831 -61.68831 L 61.688320000000004 -61.68831 L 61.688320000000004 61.688320000000004 L -61.68831 61.688320000000004 z" stroke-linecap="round" />
</g>
<g transform="matrix(2.1986840828 0 0 0.4052631399 535.3084452027 124.9999971672)" id="jDj9Al84MUCQ7S67rx8lJ"  >
<path style="stroke: rgb(132,61,179); stroke-width: 0; stroke-dasharray: none; stroke-linecap: butt; stroke-dashoffset: 0; stroke-linejoin: miter; stroke-miterlimit: 4; fill: rgb(177,189,195); fill-rule: nonzero; opacity: 1;"  transform=" translate(0, 0)" d="M -61.68831 -61.68831 L 61.688320000000004 -61.68831 L 61.688320000000004 61.688320000000004 L -61.68831 61.688320000000004 z" stroke-linecap="round" />
</g>
<g transform="matrix(0.2436708837 0 0 1.0965189766 424.6753292613 387.5000015324)" id="1v8V-Sxl6cHw2CRBieQcl"  >
<path style="stroke: rgb(102,143,135); stroke-width: 0; stroke-dasharray: none; stroke-linecap: butt; stroke-dashoffset: 0; stroke-linejoin: miter; stroke-miterlimit: 4; fill: rgb(177,189,195); fill-rule: nonzero; opacity: 1;"  transform=" translate(-0.000005, -0.000005)" d="M -102.5974 -102.5974 L 102.59741 -102.5974 L 102.59741 102.59741 L -102.5974 102.59741 z" stroke-linecap="round" />
</g>
<g transform="matrix(0.8369566635 0 0 0.8369566635 224.6753307636 125)" id="pg0LeAzo20cufQRoKjsyQ"  >
<path style="stroke: rgb(225,67,155); stroke-width: 0; stroke-dasharray: none; stroke-linecap: butt; stroke-dashoffset: 0; stroke-linejoin: miter; stroke-miterlimit: 4; fill: rgb(202,81,81); fill-rule: nonzero; opacity: 1;"  transform=" translate(0, 0)" d="M 0 -29.87012 C 16.48831 -29.87012 29.87012 -16.488300000000002 29.87012 0 C 29.87012 16.48831 16.488300000000002 29.87012 0 29.87012 C -16.48831 29.87012 -29.87012 16.488300000000002 -29.87012 0 C -29.87012 -16.48831 -16.488300000000002 -29.87012 0 -29.87012 z" stroke-linecap="round" />
</g>
<g transform="matrix(0.8369566635 0 0 0.8369566635 224.6753267372 300.0000070913)" id="bl3kXkfte5N1BRDYQhhdE"  >
<path style="stroke: rgb(225,67,155); stroke-width: 0; stroke-dasharray: none; stroke-linecap: butt; stroke-dashoffset: 0; stroke-linejoin: miter; stroke-miterlimit: 4; fill: rgb(202,81,81); fill-rule: nonzero; opacity: 1;"  transform=" translate(0, 0)" d="M 0 -29.87012 C 16.48831 -29.87012 29.87012 -16.488300000000002 29.87012 0 C 29.87012 16.48831 16.488300000000002 29.87012 0 29.87012 C -16.48831 29.87012 -29.87012 16.488300000000002 -29.87012 0 C -29.87012 -16.48831 -16.488300000000002 -29.87012 0 -29.87012 z" stroke-linecap="round" />
</g>
<g transform="matrix(0.8369566635 0 0 0.8369566635 424.9999959735 299.9999959735)" id="upD6RuuhXiXc39VLislka"  >
<path style="stroke: rgb(225,67,155); stroke-width: 0; stroke-dasharray: none; stroke-linecap: butt; stroke-dashoffset: 0; stroke-linejoin: miter; stroke-miterlimit: 4; fill: rgb(202,81,81); fill-rule: nonzero; opacity: 1;"  transform=" translate(0, 0)" d="M 0 -29.87012 C 16.48831 -29.87012 29.87012 -16.488300000000002 29.87012 0 C 29.87012 16.48831 16.488300000000002 29.87012 0 29.87012 C -16.48831 29.87012 -29.87012 16.488300000000002 -29.87012 0 C -29.87012 -16.48831 -16.488300000000002 -29.87012 0 -29.87012 z" stroke-linecap="round" />
</g>
<g transform="matrix(0.8369566635 0 0 0.8369566635 645.9415655122 300.0000070913)" id="vcptskNmOY_2sa1HDymFm"  >
<path style="stroke: rgb(225,67,155); stroke-width: 0; stroke-dasharray: none; stroke-linecap: butt; stroke-dashoffset: 0; stroke-linejoin: miter; stroke-miterlimit: 4; fill: rgb(202,81,81); fill-rule: nonzero; opacity: 1;"  transform=" translate(0, 0)" d="M 0 -29.87012 C 16.48831 -29.87012 29.87012 -16.488300000000002 29.87012 0 C 29.87012 16.48831 16.488300000000002 29.87012 0 29.87012 C -16.48831 29.87012 -29.87012 16.488300000000002 -29.87012 0 C -29.87012 -16.48831 -16.488300000000002 -29.87012 0 -29.87012 z" stroke-linecap="round" />
</g>
<g transform="matrix(0.8369566635 0 0 0.8369566635 645.9415567759 125.0000040265)" id="Kjgn4-vzA9zwWE_qZ9que"  >
<path style="stroke: rgb(225,67,155); stroke-width: 0; stroke-dasharray: none; stroke-linecap: butt; stroke-dashoffset: 0; stroke-linejoin: miter; stroke-miterlimit: 4; fill: rgb(202,81,81); fill-rule: nonzero; opacity: 1;"  transform=" translate(0, 0)" d="M 0 -29.87012 C 16.48831 -29.87012 29.87012 -16.488300000000002 29.87012 0 C 29.87012 16.48831 16.488300000000002 29.87012 0 29.87012 C -16.48831 29.87012 -29.87012 16.488300000000002 -29.87012 0 C -29.87012 -16.48831 -16.488300000000002 -29.87012 0 -29.87012 z" stroke-linecap="round" />
</g>
<g transform="matrix(0.8369566635 0 0 0.8369566635 424.9999959735 125.0000040265)" id="oOw8hW6RQmqxcdvo6VFwO"  >
<path style="stroke: rgb(225,67,155); stroke-width: 0; stroke-dasharray: none; stroke-linecap: butt; stroke-dashoffset: 0; stroke-linejoin: miter; stroke-miterlimit: 4; fill: rgb(202,81,81); fill-rule: nonzero; opacity: 1;"  transform=" translate(0, 0)" d="M 0 -29.87012 C 16.48831 -29.87012 29.87012 -16.488300000000002 29.87012 0 C 29.87012 16.48831 16.488300000000002 29.87012 0 29.87012 C -16.48831 29.87012 -29.87012 16.488300000000002 -29.87012 0 C -29.87012 -16.48831 -16.488300000000002 -29.87012 0 -29.87012 z" stroke-linecap="round" />
</g>
<g transform="matrix(0.8369566635 0 0 0.8369566635 424.9999959735 475.0000070913)" id="Bs11MBVTvXymQybJ8V9Pj"  >
<path style="stroke: rgb(225,67,155); stroke-width: 0; stroke-dasharray: none; stroke-linecap: butt; stroke-dashoffset: 0; stroke-linejoin: miter; stroke-miterlimit: 4; fill: rgb(202,81,81); fill-rule: nonzero; opacity: 1;"  transform=" translate(0, 0)" d="M 0 -29.87012 C 16.48831 -29.87012 29.87012 -16.488300000000002 29.87012 0 C 29.87012 16.48831 16.488300000000002 29.87012 0 29.87012 C -16.48831 29.87012 -29.87012 16.488300000000002 -29.87012 0 C -29.87012 -16.48831 -16.488300000000002 -29.87012 0 -29.87012 z" stroke-linecap="round" />
</g>
<g transform="matrix(0.8369566635 0 0 0.8369566635 645.9415655122 474.9999995741)" id="sYa6SZKVR9zkj1GZjhPIo"  >
<path style="stroke: rgb(225,67,155); stroke-width: 0; stroke-dasharray: none; stroke-linecap: butt; stroke-dashoffset: 0; stroke-linejoin: miter; stroke-miterlimit: 4; fill: rgb(202,81,81); fill-rule: nonzero; opacity: 1;"  transform=" translate(0, 0)" d="M 0 -29.87012 C 16.48831 -29.87012 29.87012 -16.488300000000002 29.87012 0 C 29.87012 16.48831 16.488300000000002 29.87012 0 29.87012 C -16.48831 29.87012 -29.87012 16.488300000000002 -29.87012 0 C -29.87012 -16.48831 -16.488300000000002 -29.87012 0 -29.87012 z" stroke-linecap="round" />
</g>
</svg>